# xmcd
#
# Track frame offsets:
#	150
#	14942
#	33450
#	50975
#	64500
#	73702
#	88657
#	104845
#	119172
#	128907
#
# Disc length: 1868 seconds
#
# Revision: 6
# Processed by: cddbd v1.5.2PL0 Copyright (c) Steve Scherf et al.
# Submitted via: audiograbber 1.83.01
#
DISCID=a1074a0a
DTITLE=K.D. Lang - Angel With A Lariat
DYEAR=1987
DGENRE=Country
TTITLE0=Turn Me Round
TTITLE1=High Time For A Detour
TTITLE2=Diet Of Strange Places
TTITLE3=Got The Bull By The Horns
TTITLE4=Watch Your Step Polka
TTITLE5=Rose Garden
TTITLE6=Tune Into My Wave
TTITLE7=Angel With A Lariat
TTITLE8=Pay Dirt
TTITLE9=Three Cigarettes In An Ashtray
EXTD=YEAR: 1987
EXTT0=
EXTT1=
EXTT2=
EXTT3=
EXTT4=
EXTT5=
EXTT6=
EXTT7=
EXTT8=
EXTT9=
PLAYORDER=
